<?xml version="1.0" encoding="UTF-8" standalone="no"?>
<!DOCTYPE svg PUBLIC "-//W3C//DTD SVG 1.1//EN" "http://www.w3.org/Graphics/SVG/1.1/DTD/svg11.dtd">
<svg width="100%" height="100%" viewBox="0 0 2048 2048" version="1.1" xmlns="http://www.w3.org/2000/svg" xmlns:xlink="http://www.w3.org/1999/xlink" xml:space="preserve" xmlns:serif="http://www.serif.com/" style="fill-rule:evenodd;clip-rule:evenodd;stroke-linejoin:round;stroke-miterlimit:2;">
    <g transform="matrix(0.898438,0,0,0.898438,104,104)">
        <g transform="matrix(3.77485,0,0,3.77485,-0.000118341,-0.25122)">
            <path d="M441.374,79.519L414.889,97.175L370.748,88.347L344.263,79.519L308.95,88.347L282.465,79.519L300.121,44.206L335.434,44.206L370.041,26.903C396.73,40.101 420.875,57.916 441.374,79.519Z" style="fill:rgb(3,170,111);fill-rule:nonzero;"/>
            <path d="M238.325,44.206L229.497,70.691L203.012,79.519L176.527,123.66L132.386,150.145L70.589,158.973L70.589,185.458L88.245,203.114L88.245,238.427L61.762,220.77L35.277,203.114L19.916,156.943C46.356,93.935 96.898,44.126 160.284,18.604L185.356,35.378L238.325,44.206Z" style="fill:rgb(3,170,111);fill-rule:nonzero;"/>
            <path d="M255.982,291.395L247.154,335.536L211.841,370.849L211.841,397.334L176.528,423.818L176.528,467.959L150.044,459.131L132.387,414.99L132.387,326.708L88.246,317.88L70.59,282.567L70.59,256.082L114.731,211.941L132.387,247.254L194.184,247.254L220.669,291.395L255.982,291.395Z" style="fill:rgb(3,170,111);fill-rule:nonzero;"/>
            <path d="M479.335,130.987C527.528,216.965 522.037,322.983 465.21,403.513L441.374,379.677L441.374,344.364L406.062,273.738L406.062,238.425L379.577,220.769L344.264,229.597L282.467,203.112L273.639,141.315L300.124,114.83L353.093,114.83L370.749,141.315L423.718,150.143L476.687,132.487L479.335,130.987Z" style="fill:rgb(3,170,111);fill-rule:nonzero;"/>
            <path d="M308.951,88.347L344.264,79.519L370.749,88.347L414.89,97.175L441.375,79.519C456.162,94.995 468.919,112.289 479.336,130.987L476.688,132.488L423.719,150.144L370.75,141.316L353.094,114.831L300.125,114.831L273.64,141.316L282.468,203.113L344.265,229.598L379.578,220.77L406.063,238.426L406.063,273.739L441.375,344.365L441.375,379.678L465.211,403.514C383.683,519.04 223.936,546.593 108.419,465.064C10.311,395.815 -26.494,267.691 19.916,156.942L35.277,203.113L88.247,238.425L70.59,256.082L70.59,282.567L88.246,317.88L132.387,326.708L132.387,414.99L150.043,459.131L176.528,467.959L176.528,423.818L211.841,397.333L211.841,370.848L247.154,335.535L255.982,291.394L220.669,291.394L194.184,247.253L132.387,247.253L114.731,211.94L88.246,238.425L88.246,203.112L70.59,185.457L70.59,158.972L132.387,150.144L176.528,123.659L203.013,79.518L229.498,70.69L238.326,44.205L185.357,35.377L160.285,18.603C228.174,-8.738 304.52,-5.719 370.043,26.902L335.436,44.205L300.123,44.205L282.467,79.518L308.951,88.347Z" style="fill:rgb(134,218,241);fill-rule:nonzero;"/>
        </g>
        <g transform="matrix(3.00155,0,0,3.00155,511.205,511.214)">
            <path d="M380.014,71.18C330.081,71.18 280.092,94.654 256,139.458C231.909,94.655 181.919,71.18 131.986,71.18C85.36,71.18 38.217,90.575 4.394,124.398L25.605,145.609L256,216.145L486.395,145.609L507.606,124.398C473.782,90.575 426.64,71.18 380.014,71.18Z" style="fill:rgb(236,236,241);fill-rule:nonzero;"/>
            <path d="M507.605,124.398C473.782,90.575 426.64,71.18 380.014,71.18C330.081,71.18 280.092,94.654 256,139.458L256,216.145L486.395,145.609L507.605,124.398Z" style="fill:rgb(207,221,226);fill-rule:nonzero;"/>
            <path d="M497,120.004C416.155,120.004 334.223,139.106 261.962,175.258L256,178.235L250.038,175.258C177.777,139.105 95.845,120.004 15,120.004C6.709,120.004 0,126.713 0,135.004L0,437.004C0,445.295 6.709,452.004 15,452.004C91.201,452.004 168.49,470.022 236.62,504.094L249.291,510.422C251.426,511.482 253.718,511.997 256,511.997C258.303,511.997 260.596,511.471 262.709,510.422L275.38,504.094C343.51,470.022 420.799,452.004 497,452.004C505.291,452.004 512,445.295 512,437.004L512,135.004C512,126.713 505.291,120.004 497,120.004Z" style="fill:rgb(112,76,85);fill-rule:nonzero;"/>
            <path d="M262.709,510.422L275.38,504.094C343.51,470.022 420.799,452.004 497,452.004C505.291,452.004 512,445.295 512,437.004L512,135.004C512,126.713 505.291,120.004 497,120.004C416.155,120.004 334.223,139.106 261.962,175.258L256,178.235L256,511.996C258.303,511.996 260.596,511.471 262.709,510.422Z" style="fill:rgb(75,39,70);fill-rule:nonzero;"/>
            <path d="M434.228,244.666C419.71,246.395 405.317,248.951 391,251.884L391,226.004C391,217.713 384.291,211.004 376,211.004C367.709,211.004 361,217.713 361,226.004L361,258.947C343.997,263.486 327.164,268.67 310.697,274.901C302.948,277.831 299.037,286.488 301.967,294.237C304.922,302.052 313.642,305.864 321.303,302.967C334.325,298.041 347.613,293.878 361,290.069L361,376.004C361,384.295 367.709,391.004 376,391.004C384.291,391.004 391,384.295 391,376.004L391,282.547C406.465,279.176 422.047,276.331 437.772,274.461C445.99,273.48 451.878,266.023 450.897,257.791C449.916,249.573 442.416,243.567 434.228,244.666Z" style="fill:rgb(255,228,112);fill-rule:nonzero;"/>
            <path d="M391,376.004L391,282.547C406.465,279.176 422.047,276.331 437.772,274.461C445.99,273.48 451.878,266.023 450.897,257.791C449.916,249.573 442.416,243.567 434.227,244.666C419.709,246.395 405.316,248.951 390.999,251.884L390.999,226.004C390.999,217.713 384.29,211.004 375.999,211.004L375.999,391.004C384.291,391.004 391,384.295 391,376.004Z" style="fill:rgb(255,196,115);fill-rule:nonzero;"/>
        </g>
    </g>
</svg>
